<svg width="16" height="16" viewBox="0 0 16 16" fill="none" xmlns="http://www.w3.org/2000/svg">
    <path d="m14.897 13.805-3.31-3.303c-.082-.055-.164-.11-.246-.11h-.356a5.71 5.71 0 0 0 1.396-3.713C12.38 3.567 9.809 1 6.69 1 3.543 1 1 3.567 1 6.68a5.68 5.68 0 0 0 5.69 5.678 5.768 5.768 0 0 0 3.72-1.365v.355a.44.44 0 0 0 .083.246l3.31 3.304c.137.136.356.136.465 0l.63-.628c.136-.11.136-.328 0-.465zM6.69 11.048a4.35 4.35 0 0 1-4.377-4.369A4.368 4.368 0 0 1 6.69 2.311c2.408 0 4.377 1.965 4.377 4.368 0 2.43-1.97 4.369-4.377 4.369z" fill="#AAADAB"/>
</svg>
